<?xml version="1.0" encoding="UTF-8" standalone="no"?>
<!-- Created with Inkscape (http://www.inkscape.org/) -->

<svg
   xmlns:dc="http://purl.org/dc/elements/1.1/"
   xmlns:cc="http://creativecommons.org/ns#"
   xmlns:rdf="http://www.w3.org/1999/02/22-rdf-syntax-ns#"
   xmlns:svg="http://www.w3.org/2000/svg"
   xmlns="http://www.w3.org/2000/svg"
   version="1.1"
   width="744.09448"
   height="1052.3622"
   id="svg2">
  <defs
     id="defs4" />
  <metadata
     id="metadata7">
    <rdf:RDF>
      <cc:Work
         rdf:about="">
        <dc:format>image/svg+xml</dc:format>
        <dc:type
           rdf:resource="http://purl.org/dc/dcmitype/StillImage" />
        <dc:title></dc:title>
      </cc:Work>
    </rdf:RDF>
  </metadata>
  <g
     id="layer1">
    <g
       id="g3052">
      <path
         d="m 380.26777,83.003466 c -17.93271,0.01268 -35.8914,1.44885 -50.21875,4.3125 -56.48823,11.29046 -100.57506,34.845344 -141.28125,75.531254 -40.6012,40.58096 -64.27653,84.92272 -75.625,141.65625 -5.68692,28.43029 -5.63354,71.5953 0.0937,100.25 11.29046,56.48822 34.84534,100.57505 75.53125,141.28125 46.51305,46.53625 93.9135,69.10365 167.09375,79.5625 13.06649,1.86745 57.10661,-0.64246 75.7812,-4.3125 55.1852,-10.84531 99.7941,-34.75166 140.3126,-75.25 40.6012,-40.58095 64.2452,-84.89148 75.5937,-141.625 5.6868,-28.43029 5.6647,-71.62655 -0.0625,-100.28125 -11.2905,-56.48823 -34.8454,-100.57506 -75.5312,-141.28125 -40.5809,-40.6012 -84.9227,-64.245284 -141.6563,-75.593754 -14.2151,-2.84346 -32.09854,-4.26268 -50.03125,-4.25 z"
         id="path3049"
         style="fill:#080502" />
      <path
         d="m 491.3959,304.45468 c -5.008,5.42921 -10.20857,10.74405 -14.9867,16.34487 7.99948,15.36697 13.90388,31.99291 14.79358,49.42859 2.71672,41.32959 -9.15487,81.90203 -22.42366,120.57941 -14.27904,41.29985 -33.55693,80.61636 -51.05224,120.57018 3.58118,1.06686 7.96023,-1.28514 11.71154,-1.61406 41.77729,-8.51274 81.9549,-26.25888 114.70232,-53.78143 15.21021,-12.70346 29.73132,-26.57417 41.85875,-42.22884 -7.61307,-59.83115 -21.62971,-120.09339 -52.4875,-172.54504 -9.62011,-16.01334 -19.5748,-32.15693 -32.41434,-45.79309 -3.12982,-0.001 -5.92029,6.03918 -8.91751,8.19989 l -0.51152,0.54758 -0.27272,0.29194 z m 28.9665,-32.99417 c -2.29747,3.64528 -7.68772,6.86487 -7.00161,11.66154 10.91237,15.42372 22.92576,30.16393 32.24315,46.69013 28.84135,48.64893 44.98574,103.82676 53.36842,159.47073 0.4452,4.63625 3.63065,-0.0938 4.68334,-1.89675 24.31771,-42.19806 37.33669,-90.93554 36.06176,-139.7042 0.77774,-4.85244 -6.61628,-4.63399 -9.42999,-7.24401 -36.61564,-18.0654 -70.38785,-41.62235 -99.79002,-69.91462 -3.06877,-3.3903 -6.25115,-6.65171 -8.7332,-0.71084 -0.46729,0.54934 -0.93457,1.09868 -1.40185,1.64802 z m 60.11956,-75.8394 c -14.98519,18.32403 -29.45399,37.36556 -42.42192,57.12554 11.14524,13.91045 25.58069,25.27679 39.50769,36.39477 18.04039,12.75231 36.34351,25.94142 56.89372,34.27532 4.67467,0.38592 1.29689,-6.99661 1.8214,-9.5706 -4.58523,-28.16708 -14.07419,-55.70203 -27.57602,-80.83286 -8.06405,-13.46563 -15.53873,-27.85663 -25.87361,-39.51161 -0.78376,0.70648 -1.56751,1.41296 -2.35126,2.11944 z M 459.40894,109.28704 c -1.94308,4.04176 2.15654,9.32913 2.89617,13.55262 14.3922,40.23539 33.50216,79.37838 60.02471,113.0177 3.80272,5.09042 7.6517,-3.30685 10.26604,-5.46419 12.92448,-16.69013 26.42528,-33.63755 37.35514,-51.79381 -23.2711,-24.19597 -50.98274,-44.81947 -81.83464,-58.57509 -9.38558,-3.82888 -18.75686,-8.84855 -28.70742,-10.73723 z M 372.84305,97.994395 c -25.12734,-0.263292 -50.28392,3.243765 -73.88237,12.087425 -23.31711,8.19027 -46.4074,18.68592 -66.13316,33.51366 19.26284,6.15018 39.95134,8.5113 59.58353,13.97252 66.67108,15.99907 131.24992,44.8944 183.8649,89.21073 8.39349,6.63302 15.67775,15.56718 24.19714,21.43321 4.25728,-4.70286 10.96726,-8.80311 12.61729,-15.06789 -14.41811,-23.21748 -31.6804,-44.94104 -43.19455,-69.95438 -12.82969,-25.75082 -22.77649,-52.82506 -31.78064,-80.09537 -21.18106,-5.663871 -43.52801,-4.911185 -65.27214,-5.099905 z M 215.30903,160.18672 c -10.95796,2.78918 -17.50488,13.59233 -25.43329,20.96259 -34.10766,36.0727 -55.48336,82.8276 -64.08996,131.49823 -1.97059,10.18639 -3.15476,20.71147 -3.33473,30.97011 68.84736,-24.76498 138.33094,-49.97549 211.08301,-60.37093 26.89304,-1.97069 54.30943,-4.05768 81.01171,0.753 17.95903,3.60916 35.51211,11.08997 49.56567,22.59395 7.7968,-4.45199 13.21299,-12.69597 19.79657,-18.85754 2.31173,-2.49548 7.01907,-5.90025 2.52379,-8.9601 -51.36285,-52.0732 -119.39973,-84.50361 -189.48232,-103.02099 -26.28693,-6.55232 -52.79406,-13.36532 -79.85217,-15.60144 l -0.92727,0 -0.86101,0.0332 z m 157.66648,136.93571 c -65.42386,1.75267 -128.54513,21.82124 -190.0873,42.45504 -20.59125,7.11343 -41.05883,14.75463 -61.39753,22.45282 2.28895,31.62257 7.79451,63.28474 20.56519,92.4937 13.39906,31.24373 31.85443,61.13337 57.19177,84.01593 3.84007,2.95403 6.92674,-3.8199 10.17995,-5.04836 54.71508,-44.36203 109.18625,-89.08636 162.00592,-135.70005 27.23208,-25.00932 55.55545,-49.36675 80.49116,-76.52733 1.41249,-3.8975 -4.44109,-6.32713 -6.82196,-8.64334 -21.04223,-13.7676 -47.66103,-15.6548 -72.1272,-15.49841 z m 86.79771,40.26936 c -44.78025,44.15722 -91.40457,86.40314 -139.74777,126.62937 -35.19175,29.99787 -71.64309,58.71121 -106.20665,89.32173 16.46909,14.60141 36.39677,25.28073 55.79319,35.69982 37.23091,17.641 78.68184,25.86868 119.82166,24.70975 7.74368,2.7583 9.97251,-3.52606 12.32922,-9.49707 27.7534,-57.79978 55.44671,-116.60648 68.88204,-179.66218 5.82438,-29.66067 7.94668,-61.83072 -5.14539,-89.96909 -0.39485,-4.93659 -4.09838,2.33803 -5.7263,2.76767 z"
         id="path3030"
         style="fill:#ff9955;fill-opacity:1;stroke:none" />
    </g>
  </g>
</svg>
